<svg width="96" height="44" viewBox="0 0 96 44" fill="none" xmlns="http://www.w3.org/2000/svg">
<path fill-rule="evenodd" clip-rule="evenodd" d="M76.382 34.0804C74.1461 34.0804 74.4329 31.9715 76.2263 31.9715H77.8612V32.6745C77.8612 33.4139 77.1083 34.0804 76.382 34.0804V34.0804ZM51.3927 24.7076C51.448 24.5919 51.6812 23.536 51.237 23.536H45.9434V37.3609H51.7041V30.7218C51.7041 29.4654 52.0185 28.1443 53.4946 28.1443C54.8029 28.1443 54.9737 29.6919 54.9737 31.0342V37.3609H60.6567V30.4875C60.6567 29.1445 61.1551 28.1443 62.4471 28.1443C64.1218 28.1443 63.8484 30.4223 63.8484 32.1277V36.1893C63.8481 36.5542 63.7019 37.3609 64.082 37.3609H69.3757C69.7505 37.3609 69.6098 36.6247 69.6092 36.2674C69.6085 35.8248 69.6092 35.3822 69.6092 34.9396L69.6762 35.0286C70.1774 35.8017 70.2268 36.1342 71.2583 36.7998C72.8345 37.8169 76.1267 38.0007 77.571 36.6011C77.6932 36.4828 77.8108 36.3728 77.9169 36.2452L78.2504 35.7987C78.2504 36.5383 78.1055 37.3609 78.4839 37.3609H83.6219V29.6283C83.6219 25.4288 80.6654 23.3017 76.4598 23.3017C74.4253 23.3017 71.6761 23.7366 69.9984 24.8638C70.1446 25.1408 70.2636 25.4613 70.4145 25.7741L71.5456 28.1542C71.6378 28.3568 71.6918 28.4288 71.7889 28.6129C72.5508 28.4349 73.2151 27.5975 75.4479 27.5975C76.8471 27.5975 77.5937 28.0079 77.8612 29.1597C77.2103 28.8463 73.7562 29.1626 72.7996 29.3926C72.0502 29.5727 71.4858 29.8439 70.8869 30.2072C69.9447 30.7788 69.9071 31.3933 69.6092 31.7372C69.6092 28.5931 69.7802 25.6689 67.0864 24.0363C65.5067 23.0789 63.0549 23.0727 61.4082 23.8995C60.2277 24.4924 60.0669 24.9183 59.5668 25.2543C58.7461 24.7029 58.2079 23.3017 55.2851 23.3017C52.7315 23.3017 51.9158 24.5674 51.3927 24.7076V24.7076Z" fill="#68C8F3"/>
<path fill-rule="evenodd" clip-rule="evenodd" d="M35.8225 24.7855V23.5359H30.6066C30.4272 23.5359 30.373 23.5902 30.373 23.7702V37.1265C30.373 37.3065 30.4272 37.3608 30.6066 37.3608H36.1338V30.4092C36.1338 27.6692 39.7927 27.2669 39.7927 29.9406V37.3608H45.5534V29.0033C45.5534 23.1632 39.4601 22.272 36.6458 24.2056C36.2564 24.4731 36.0887 24.7142 35.8225 24.7855V24.7855Z" fill="#099EE2"/>
<path fill-rule="evenodd" clip-rule="evenodd" d="M20.2541 24.7855V23.5358H14.8047V37.3608H20.2541C20.6947 37.3608 20.5669 36.6969 20.5656 36.2674C20.561 34.7194 20.3946 30.3452 20.8294 29.268C21.1109 28.5704 21.6577 28.1441 22.5895 28.1441C24.4918 28.1441 24.2244 30.157 24.2244 32.0494V36.1892C24.2241 36.554 24.0779 37.3608 24.4579 37.3608H29.9852V29.0814C29.9852 26.0246 27.9247 23.3015 24.6914 23.3015C23.5938 23.3015 22.9145 23.333 21.943 23.7463C20.9295 24.1774 20.788 24.5021 20.2541 24.7855V24.7855Z" fill="#099EE2"/>
<path fill-rule="evenodd" clip-rule="evenodd" d="M10.5226 10.5182C10.0321 10.7867 9.90561 10.8633 9.19909 10.7193C7.01719 10.7954 6.57382 10.8931 4.48452 11.2293C3.99362 11.3083 3.37546 11.4293 2.89338 11.4293L2.54867 14.7545C2.12002 17.8921 1.85935 21.5591 1.47005 24.6854L0.70652 31.2614C0.606574 32.3115 0.469851 33.5196 0.338827 34.5635C0.320898 34.7063 -0.0762218 37.6891 0.0130585 37.8127L5.92946 37.5252C5.92946 33.4089 5.92946 29.2925 5.92946 25.1762C5.92946 21.0401 6.16301 17.1654 6.16301 12.9914C7.33248 12.9914 18.2748 12.131 19.2983 11.9043C19.5387 11.6573 21.7981 9.85364 21.8696 9.39856C21.3246 9.40797 11.0657 10.4335 10.5226 10.5182V10.5182Z" fill="#099EE2"/>
<path fill-rule="evenodd" clip-rule="evenodd" d="M84.0117 18.8495V37.3609H89.7725V18.6933C88.992 18.5108 85.3189 18.6151 84.2453 18.6151C84.0659 18.6151 84.0117 18.6696 84.0117 18.8495V18.8495Z" fill="#68C8F3"/>
<path fill-rule="evenodd" clip-rule="evenodd" d="M90.1621 18.8493V37.1264C90.1621 37.3064 90.2163 37.3608 90.3957 37.3608H95.9228V18.8493C95.9228 18.6694 95.8687 18.615 95.6893 18.615H90.3957C90.2163 18.615 90.1621 18.6694 90.1621 18.8493Z" fill="#68C8F3"/>
<path fill-rule="evenodd" clip-rule="evenodd" d="M9.2771 27.3631C9.2771 30.095 9.10764 33.6454 8.42172 36.2683C8.32812 36.6261 8.11728 37.0061 8.10938 37.3608H14.4151L13.9026 35.2194C13.4851 33.3349 13.2474 29.8122 13.2474 27.8317C13.2474 27.0789 13.3308 26.5479 13.3263 25.88C13.3218 25.2485 13.3497 24.4827 13.4354 23.8807C13.6242 22.5556 13.713 21.447 13.994 20.2234C14.4495 18.2399 15.0226 18.6151 12.3132 18.6151C10.9119 18.6151 9.51064 18.6151 8.10938 18.6151C8.11802 18.7197 8.85065 20.8374 8.96577 22.7547L9.27563 26.1848C9.23527 26.7184 9.2771 26.8762 9.2771 27.3631V27.3631Z" fill="#099EE2"/>
<path fill-rule="evenodd" clip-rule="evenodd" d="M20.3809 9.39844L23.4448 11.6408L25.8622 11.4333C26.2815 11.3985 26.758 11.4599 27.1774 11.4251C27.6125 11.389 27.9553 11.3511 28.5049 11.3511C28.3286 11.7196 28.4205 21.6376 28.4226 23.4621C28.4236 24.2944 28.8738 24.1871 29.7192 25.6761C29.8959 25.9874 29.7429 25.8696 29.9841 25.9571C29.9841 23.8941 29.9062 22.0901 29.9062 20.0209C29.9062 18.0162 29.9062 16.0115 29.9062 14.0067C29.9062 12.9439 29.8432 12.1055 29.8372 11.1078C29.8341 10.5812 29.9217 10.6391 28.8154 10.649C28.2909 10.6537 27.8795 10.5909 27.3821 10.525C26.5189 10.4106 26.647 10.7511 26.5118 9.91414C26.3924 9.17538 26.6381 8.98995 26.3269 8.98497C26.0229 8.98008 25.1772 9.14696 23.753 9.16099C23.3695 9.16477 20.6716 9.37372 20.3809 9.39844V9.39844Z" fill="#099EE2"/>
<path fill-rule="evenodd" clip-rule="evenodd" d="M0.0136719 37.8126C0.331532 38.4926 0.853146 38.9202 1.30414 39.5028C1.56178 39.8356 1.76434 39.9713 2.00487 40.2838C2.2626 40.6187 2.4681 40.7998 2.75782 41.0904L4.90864 43.2284C4.92041 43.2393 4.93696 43.2553 4.94873 43.2662C5.18549 43.4864 5.63493 43.9208 5.93007 44V37.5251L0.0136719 37.8126Z" fill="#154E60"/>
<path fill-rule="evenodd" clip-rule="evenodd" d="M19.1942 9.71081C18.0564 9.71081 17.2225 9.81588 16.2194 9.9586C15.8112 10.0167 15.2512 10.1049 14.8597 10.1565C14.3583 10.2226 13.8464 10.2526 13.4035 10.3238C13.2386 10.625 13.0877 12.1559 13.2478 12.4931C13.5916 12.5438 16.9516 12.1299 17.5426 12.0672C17.9651 12.0225 18.2083 12.0081 18.6122 11.9687C20.2748 11.8068 21.8624 11.6268 23.6103 11.6268C23.6423 10.9439 21.9867 10.0466 21.8702 9.39844H20.3821C20.2944 9.64328 20.2332 9.75582 19.9013 9.8287C19.6481 9.88424 19.3648 9.85832 19.1942 9.71081V9.71081Z" fill="#099EE2"/>
<path fill-rule="evenodd" clip-rule="evenodd" d="M70.3095 41.969C70.1216 41.969 69.8816 41.4224 70.3095 41.4224H70.9323C70.9264 41.6858 70.9062 41.969 70.3095 41.969ZM69.6867 40.1726C69.6867 40.4809 69.7112 40.4895 69.7645 40.7193C70.5412 40.5378 70.8196 40.4685 70.9323 40.9536C69.6109 40.9536 69.4531 41.1157 69.4531 41.969C69.4531 42.2489 69.784 42.455 70.1014 42.4869C70.4714 42.5239 70.6781 42.3383 70.9323 42.2034V42.4377C71.7488 42.4377 71.6329 42.6495 71.6329 41.1879C71.6329 39.4958 70.3327 40.1186 69.6867 40.1726Z" fill="#68C8F3"/>
<path fill-rule="evenodd" clip-rule="evenodd" d="M23.8354 41.3442C23.8354 40.4978 24.2315 40.5936 24.7696 40.7193C25.1549 42.3789 23.8354 42.0227 23.8354 41.3442ZM23.1348 41.188C23.1348 43.0564 25.5481 42.6934 25.5481 41.5004C25.5481 40.8231 25.4869 40.0164 24.3025 40.0164C23.6378 40.0164 23.1348 40.5212 23.1348 41.188Z" fill="#68C8F3"/>
<path fill-rule="evenodd" clip-rule="evenodd" d="M34.3443 41.5787C34.6612 41.3658 34.4776 41.4225 35.2006 41.4225C35.2006 41.4848 35.2071 41.589 35.1914 41.6474C35.1424 41.8286 34.9686 41.9692 34.7336 41.9692C34.4082 41.9692 34.4427 41.7996 34.3443 41.5787V41.5787ZM33.9551 40.1728C34.0011 40.7274 34.0237 40.716 34.4923 40.6402C34.8714 40.5789 35.1601 40.4646 35.2006 40.9538C33.1062 40.9538 33.5915 42.267 34.2632 42.4485C34.6988 42.5663 34.8882 42.4135 35.2006 42.2035V42.4378H35.9013C35.9013 41.1455 36.1554 40.0165 35.045 40.0165C34.5479 40.0165 34.3625 40.1387 33.9551 40.1728V40.1728Z" fill="#68C8F3"/>
<path fill-rule="evenodd" clip-rule="evenodd" d="M75.7586 40.3288C75.5123 40.2367 75.647 40.4984 75.603 40.0945H74.9023V42.4377C75.879 42.4377 75.603 42.7082 75.603 40.9536C76.7427 40.188 76.4593 41.234 76.4593 42.4377H77.16C77.16 41.1405 77.3977 40.0164 76.3815 40.0164C76.0865 40.0164 75.8853 40.1554 75.7586 40.3288V40.3288Z" fill="#68C8F3"/>
<path fill-rule="evenodd" clip-rule="evenodd" d="M53.4956 41.3442C53.4956 40.4978 53.8917 40.5936 54.4297 40.7193C54.8151 42.3789 53.4956 42.0227 53.4956 41.3442ZM52.7949 41.2661C52.7949 42.9628 55.2082 42.7426 55.2082 41.5004C55.2082 40.7418 55.1294 40.0164 53.8849 40.0164C53.3043 40.0164 52.7949 40.5648 52.7949 41.2661V41.2661Z" fill="#68C8F3"/>
<path fill-rule="evenodd" clip-rule="evenodd" d="M18.3862 40.0945H17.6855V42.4377H18.3862C18.3862 40.928 18.1952 40.7193 19.1647 40.7193C19.3022 41.3116 19.2426 41.7304 19.2426 42.4377H19.9432C19.9432 41.4277 20.2428 39.3805 18.6884 40.1822C18.4799 40.2898 18.417 40.4485 18.3862 40.0945Z" fill="#68C8F3"/>
<path fill-rule="evenodd" clip-rule="evenodd" d="M59.0991 40.3288V40.0945H58.3984V42.4377H59.0991C59.0991 40.928 58.9081 40.7193 59.8775 40.7193C60.015 41.3116 59.9554 41.7304 59.9554 42.4377H60.656C60.656 41.2847 60.8872 40.0164 59.8775 40.0164C59.5438 40.0164 59.3299 40.2063 59.0991 40.3288V40.3288Z" fill="#68C8F3"/>
<path fill-rule="evenodd" clip-rule="evenodd" d="M12.935 40.3288V40.0945H12.2344V42.4377H12.935C12.935 41.2465 12.7556 40.7193 13.48 40.7193C13.8697 40.7193 13.7135 41.385 13.7135 42.4377C14.718 42.4377 14.3991 42.6755 14.4154 41.1086C14.4185 40.8175 14.489 40.0164 13.7914 40.0164C13.3699 40.0164 13.183 40.1623 12.935 40.3288V40.3288Z" fill="#68C8F3"/>
<path fill-rule="evenodd" clip-rule="evenodd" d="M85.3343 40.6414C85.6407 40.6414 86.035 40.5696 86.035 41.2662C86.035 42.0575 85.4084 41.8849 85.1008 41.813C85.059 41.6335 84.7874 40.6414 85.3343 40.6414ZM84.3223 41.11V41.4225C84.3223 42.8645 86.7356 42.8663 86.7356 41.2662C86.7356 39.6317 84.3223 39.6119 84.3223 41.11Z" fill="#68C8F3"/>
<path fill-rule="evenodd" clip-rule="evenodd" d="M43.8415 40.7194C43.8415 41.1238 43.9626 41.2854 44.3057 41.4254C44.7024 41.5872 44.9713 41.4335 45.0093 41.8911C44.7835 41.8911 44.6328 41.9054 44.4187 41.8587C44.1631 41.8029 44.2024 41.7584 43.9193 41.7348C43.823 41.9175 43.7856 41.9381 43.7637 42.2034C45.6559 43.1144 46.2799 41.4652 45.2133 41.0614C44.6179 40.836 44.5561 40.9862 44.4643 40.6413C44.7059 40.4388 45.1679 40.6872 45.5541 40.7194C45.5793 40.4159 45.6244 40.5159 45.632 40.1727C45.4273 40.1555 43.8415 39.6201 43.8415 40.7194V40.7194Z" fill="#68C8F3"/>
<path fill-rule="evenodd" clip-rule="evenodd" d="M90.4732 42.4377H91.2517L92.1858 40.0945H91.4852L90.8624 41.5785L90.2397 40.0945H89.5391C89.5937 40.3296 89.6798 40.4519 89.7621 40.6517L90.4732 42.4377Z" fill="#68C8F3"/>
<path fill-rule="evenodd" clip-rule="evenodd" d="M29.2841 42.4378H30.0626L30.9967 40.0946H30.2961L29.6733 41.5787C29.5588 41.0852 29.2522 40.6277 29.1284 40.0946H28.4277C28.5183 40.4846 28.6962 40.8463 28.8503 41.2328C28.972 41.5381 29.2598 42.1447 29.2841 42.4378V42.4378Z" fill="#68C8F3"/>
<path fill-rule="evenodd" clip-rule="evenodd" d="M39.3267 40.0165C39.12 40.1161 39.2434 40.0879 38.9375 40.0947V40.6415C39.2434 40.6483 39.12 40.62 39.3267 40.7195C39.3267 42.0423 39.1056 42.4379 40.2609 42.4379C40.4984 42.4379 40.575 42.3629 40.728 42.2817C40.6866 42.1037 40.6676 42.1021 40.6501 41.8912C40.2831 41.8912 40.3018 41.8772 40.0273 41.8131V40.6415H40.5723V40.0947H40.0273V39.5479C39.0444 39.5479 39.3153 39.5026 39.3267 40.0165V40.0165Z" fill="#68C8F3"/>
<path fill-rule="evenodd" clip-rule="evenodd" d="M65.0164 40.0946H64.7051V40.6414H65.0164C65.0164 42.0314 64.9296 42.7076 66.4177 42.3598V41.8912C65.6896 41.8912 65.717 41.9318 65.717 40.8757C65.717 40.5801 65.8986 40.6414 66.3399 40.6414V40.0946H65.717V39.5479H65.0164V40.0946V40.0946Z" fill="#68C8F3"/>
<path fill-rule="evenodd" clip-rule="evenodd" d="M80.4297 42.4377H81.1303V39.2354H80.4297V42.4377Z" fill="#68C8F3"/>
<path fill-rule="evenodd" clip-rule="evenodd" d="M8.10938 42.4378H8.81001V39.4697H8.10938V42.4378Z" fill="#68C8F3"/>
<path fill-rule="evenodd" clip-rule="evenodd" d="M48.9023 42.4377H49.603V40.0945H48.9023V42.4377Z" fill="#68C8F3"/>
<path fill-rule="evenodd" clip-rule="evenodd" d="M95.5321 41.4224C95.9897 41.4224 95.8963 41.4374 95.9208 40.6427C95.9339 40.2149 95.9992 39.9901 95.9992 39.4697H95.2207C95.2207 39.9434 95.2812 40.1154 95.2987 40.485C95.3171 40.8723 95.1595 41.4224 95.5321 41.4224Z" fill="#68C8F3"/>
<path fill-rule="evenodd" clip-rule="evenodd" d="M48.8242 39.4697C48.8242 39.8642 49.6806 39.8642 49.6806 39.4697C49.6806 38.9277 48.8242 38.9277 48.8242 39.4697Z" fill="#68C8F3"/>
<path fill-rule="evenodd" clip-rule="evenodd" d="M95.2988 42.0472C95.2988 42.6989 95.7755 42.461 95.9995 42.1254C95.8754 41.9395 95.9053 42.044 95.8438 41.8129C95.5567 41.8129 95.2988 41.7438 95.2988 42.0472V42.0472Z" fill="#68C8F3"/>
<path fill-rule="evenodd" clip-rule="evenodd" d="M9.19922 10.7193C9.90574 10.8633 10.0323 10.7866 10.5227 10.5182C10.5227 9.41393 10.6484 8.21188 10.778 7.15522C11.0028 5.32188 11.3547 3.18117 12.9356 2.1341C14.5961 1.03436 16.446 0.678176 15.092 2.26695C14.8265 2.57839 14.6218 2.8093 14.4185 3.15331C13.2796 5.08018 13.1083 5.2253 12.6306 7.60799C12.5453 8.03318 12.2219 10.0175 12.2913 10.3358C12.2198 10.7909 12.1643 12.1585 11.924 12.4056C11.924 13.0203 10.8567 16.1232 12.8383 15.7899C13.126 15.7414 13.4335 15.6173 13.5893 15.3652C14.3636 14.1122 13.2474 14.3116 13.2474 12.4932C13.0873 12.1559 13.2382 10.6251 13.403 10.3239C13.403 9.78423 13.677 8.66603 13.8191 8.17562C13.9254 7.80855 13.9941 7.44581 14.0935 7.12311C14.3824 6.18638 14.7704 5.09439 15.1935 4.24336C15.7231 3.17794 16.7825 1.49664 17.8535 3.05866C18.4381 3.91116 18.9035 6.07061 19.0544 7.165C19.1688 7.99388 19.0751 8.91161 19.1937 9.71089C19.3643 9.8584 19.6477 9.88432 19.9008 9.82878C20.2327 9.75591 20.294 9.64336 20.3816 9.39852C20.9489 8.56797 19.7054 3.96993 19.1638 2.83753C20.3985 3.16825 21.1502 6.20704 21.4686 7.47662L21.8698 9.39852C21.9862 10.0467 22.1788 11.1368 22.1468 11.8198C22.0039 12.9852 22.4229 16.0667 23.7153 14.3556C23.8999 14.1111 24.1219 13.8809 24.1013 13.5707C24.061 12.9632 23.4455 12.931 23.4455 11.6409L23.0598 9.24224L22.2275 5.85594C21.8998 4.72354 21.5793 3.75083 20.9979 2.87184C19.7273 0.950873 17.8085 1.00853 16.9818 0.574669C15.7076 -0.093976 15.1531 -0.15874 13.5733 0.27457C13.0051 0.430384 12.6039 0.645609 12.1677 0.973197C11.3999 1.54987 10.8018 2.44988 10.3992 3.4166C9.99621 4.38451 9.68304 5.60888 9.52351 6.75577C9.35231 7.9877 9.19922 9.33948 9.19922 10.7193V10.7193Z" fill="#154E60"/>
</svg>
